<svg version="1.1" viewBox="0.0 0.0 278.3989501312336 187.1994750656168" fill="none" stroke="none" stroke-linecap="square" stroke-miterlimit="10" xmlns:xlink="http://www.w3.org/1999/xlink" xmlns="http://www.w3.org/2000/svg"><clipPath id="p.0"><path d="m0 0l278.39896 0l0 187.19948l-278.39896 0l0 -187.19948z" clip-rule="nonzero"/></clipPath><g clip-path="url(#p.0)"><path fill="#ffffff" d="m0 0l278.39896 0l0 187.19948l-278.39896 0z" fill-rule="evenodd"/><path fill="#ffffff" d="m196.69554 95.941l0 0c0 -1.4727936 1.193924 -2.6667252 2.6667175 -2.6667252l23.674438 0c0.70726013 0 1.3855438 0.28096008 1.8856506 0.7810669c0.5001068 0.5001068 0.7810669 1.1783981 0.7810669 1.8856583l0 10.666557c0 1.472786 -1.1939392 2.6667175 -2.6667175 2.6667175l-23.674438 0c-1.4727936 0 -2.6667175 -1.1939316 -2.6667175 -2.6667175z" fill-rule="evenodd"/><path stroke="#00b0f0" stroke-width="1.0" stroke-linejoin="round" stroke-linecap="butt" d="m196.69554 95.941l0 0c0 -1.4727936 1.193924 -2.6667252 2.6667175 -2.6667252l23.674438 0c0.70726013 0 1.3855438 0.28096008 1.8856506 0.7810669c0.5001068 0.5001068 0.7810669 1.1783981 0.7810669 1.8856583l0 10.666557c0 1.472786 -1.1939392 2.6667175 -2.6667175 2.6667175l-23.674438 0c-1.4727936 0 -2.6667175 -1.1939316 -2.6667175 -2.6667175z" fill-rule="evenodd"/><path fill="#ffffff" d="m196.69554 133.10373l0 0c0 -1.4727936 1.193924 -2.6667175 2.6667175 -2.6667175l23.674438 0c0.70726013 0 1.3855438 0.28096008 1.8856506 0.7810669c0.5001068 0.5001068 0.7810669 1.1783905 0.7810669 1.8856506l0 10.666565c0 1.4727783 -1.1939392 2.6667175 -2.6667175 2.6667175l-23.674438 0c-1.4727936 0 -2.6667175 -1.1939392 -2.6667175 -2.6667175z" fill-rule="evenodd"/><path stroke="#00b0f0" stroke-width="1.0" stroke-linejoin="round" stroke-linecap="butt" d="m196.69554 133.10373l0 0c0 -1.4727936 1.193924 -2.6667175 2.6667175 -2.6667175l23.674438 0c0.70726013 0 1.3855438 0.28096008 1.8856506 0.7810669c0.5001068 0.5001068 0.7810669 1.1783905 0.7810669 1.8856506l0 10.666565c0 1.4727783 -1.1939392 2.6667175 -2.6667175 2.6667175l-23.674438 0c-1.4727936 0 -2.6667175 -1.1939392 -2.6667175 -2.6667175z" fill-rule="evenodd"/><path fill="#ffc000" d="m196.69554 170.26646l0 0c0 -1.4727936 1.193924 -2.6667328 2.6667175 -2.6667328l23.674438 0c0.70726013 0 1.3855438 0.28096008 1.8856506 0.7810669c0.5001068 0.5001068 0.7810669 1.1784058 0.7810669 1.8856659l0 10.66655c0 1.4727936 -1.1939392 2.6667175 -2.6667175 2.6667175l-23.674438 0c-1.4727936 0 -2.6667175 -1.193924 -2.6667175 -2.6667175z" fill-rule="evenodd"/><path stroke="#ffc000" stroke-width="1.0" stroke-linejoin="round" stroke-linecap="butt" d="m196.69554 170.26646l0 0c0 -1.4727936 1.193924 -2.6667328 2.6667175 -2.6667328l23.674438 0c0.70726013 0 1.3855438 0.28096008 1.8856506 0.7810669c0.5001068 0.5001068 0.7810669 1.1784058 0.7810669 1.8856659l0 10.66655c0 1.4727936 -1.1939392 2.6667175 -2.6667175 2.6667175l-23.674438 0c-1.4727936 0 -2.6667175 -1.193924 -2.6667175 -2.6667175z" fill-rule="evenodd"/><path fill="#ffffff" d="m244.69554 59.754646l0 0c0 -1.4727898 1.193924 -2.6667213 2.6667175 -2.6667213l23.674423 0c0.7072754 0 1.3855591 0.28096008 1.8856506 0.7810669c0.5001221 0.5001068 0.7810669 1.1783981 0.7810669 1.8856544l0 10.666557c0 1.4727936 -1.1939087 2.6667252 -2.6667175 2.6667252l-23.674423 0c-1.4727936 0 -2.6667175 -1.1939316 -2.6667175 -2.6667252z" fill-rule="evenodd"/><path stroke="#00b0f0" stroke-width="1.0" stroke-linejoin="round" stroke-linecap="butt" d="m244.69554 59.754646l0 0c0 -1.4727898 1.193924 -2.6667213 2.6667175 -2.6667213l23.674423 0c0.7072754 0 1.3855591 0.28096008 1.8856506 0.7810669c0.5001221 0.5001068 0.7810669 1.1783981 0.7810669 1.8856544l0 10.666557c0 1.4727936 -1.1939087 2.6667252 -2.6667175 2.6667252l-23.674423 0c-1.4727936 0 -2.6667175 -1.1939316 -2.6667175 -2.6667252z" fill-rule="evenodd"/><path fill="#ffc000" d="m244.69554 95.941l0 0c0 -1.4727936 1.193924 -2.6667252 2.6667175 -2.6667252l23.674423 0c0.7072754 0 1.3855591 0.28096008 1.8856506 0.7810669c0.5001221 0.5001068 0.7810669 1.1783981 0.7810669 1.8856583l0 10.666557c0 1.472786 -1.1939087 2.6667175 -2.6667175 2.6667175l-23.674423 0c-1.4727936 0 -2.6667175 -1.1939316 -2.6667175 -2.6667175z" fill-rule="evenodd"/><path stroke="#ffc000" stroke-width="1.0" stroke-linejoin="round" stroke-linecap="butt" d="m244.69554 95.941l0 0c0 -1.4727936 1.193924 -2.6667252 2.6667175 -2.6667252l23.674423 0c0.7072754 0 1.3855591 0.28096008 1.8856506 0.7810669c0.5001221 0.5001068 0.7810669 1.1783981 0.7810669 1.8856583l0 10.666557c0 1.472786 -1.1939087 2.6667175 -2.6667175 2.6667175l-23.674423 0c-1.4727936 0 -2.6667175 -1.1939316 -2.6667175 -2.6667175z" fill-rule="evenodd"/><path fill="#ffffff" d="m244.69554 133.10373l0 0c0 -1.4727936 1.193924 -2.6667175 2.6667175 -2.6667175l23.674423 0c0.7072754 0 1.3855591 0.28096008 1.8856506 0.7810669c0.5001221 0.5001068 0.7810669 1.1783905 0.7810669 1.8856506l0 10.666565c0 1.4727783 -1.1939087 2.6667175 -2.6667175 2.6667175l-23.674423 0c-1.4727936 0 -2.6667175 -1.1939392 -2.6667175 -2.6667175z" fill-rule="evenodd"/><path stroke="#00b0f0" stroke-width="1.0" stroke-linejoin="round" stroke-linecap="butt" d="m244.69554 133.10373l0 0c0 -1.4727936 1.193924 -2.6667175 2.6667175 -2.6667175l23.674423 0c0.7072754 0 1.3855591 0.28096008 1.8856506 0.7810669c0.5001221 0.5001068 0.7810669 1.1783905 0.7810669 1.8856506l0 10.666565c0 1.4727783 -1.1939087 2.6667175 -2.6667175 2.6667175l-23.674423 0c-1.4727936 0 -2.6667175 -1.1939392 -2.6667175 -2.6667175z" fill-rule="evenodd"/><path fill="#ffffff" d="m244.69554 170.26646l0 0c0 -1.4727936 1.193924 -2.6667328 2.6667175 -2.6667328l23.674423 0c0.7072754 0 1.3855591 0.28096008 1.8856506 0.7810669c0.5001221 0.5001068 0.7810669 1.1784058 0.7810669 1.8856659l0 10.66655c0 1.4727936 -1.1939087 2.6667175 -2.6667175 2.6667175l-23.674423 0c-1.4727936 0 -2.6667175 -1.193924 -2.6667175 -2.6667175z" fill-rule="evenodd"/><path stroke="#00b0f0" stroke-width="1.0" stroke-linejoin="round" stroke-linecap="butt" d="m244.69554 170.26646l0 0c0 -1.4727936 1.193924 -2.6667328 2.6667175 -2.6667328l23.674423 0c0.7072754 0 1.3855591 0.28096008 1.8856506 0.7810669c0.5001221 0.5001068 0.7810669 1.1784058 0.7810669 1.8856659l0 10.66655c0 1.4727936 -1.1939087 2.6667175 -2.6667175 2.6667175l-23.674423 0c-1.4727936 0 -2.6667175 -1.193924 -2.6667175 -2.6667175z" fill-rule="evenodd"/><path fill="#ffffff" d="m196.69554 59.754646l0 0c0 -1.4727898 1.193924 -2.6667213 2.6667175 -2.6667213l23.674438 0c0.70726013 0 1.3855438 0.28096008 1.8856506 0.7810669c0.5001068 0.5001068 0.7810669 1.1783981 0.7810669 1.8856544l0 10.666557c0 1.4727936 -1.1939392 2.6667252 -2.6667175 2.6667252l-23.674438 0c-1.4727936 0 -2.6667175 -1.1939316 -2.6667175 -2.6667252z" fill-rule="evenodd"/><path stroke="#00b0f0" stroke-width="1.0" stroke-linejoin="round" stroke-linecap="butt" d="m196.69554 59.754646l0 0c0 -1.4727898 1.193924 -2.6667213 2.6667175 -2.6667213l23.674438 0c0.70726013 0 1.3855438 0.28096008 1.8856506 0.7810669c0.5001068 0.5001068 0.7810669 1.1783981 0.7810669 1.8856544l0 10.666557c0 1.4727936 -1.1939392 2.6667252 -2.6667175 2.6667252l-23.674438 0c-1.4727936 0 -2.6667175 -1.1939316 -2.6667175 -2.6667252z" fill-rule="evenodd"/><path fill="#ffc000" d="m100.69554 95.941l0 0c0 -1.4727936 1.1939316 -2.6667252 2.6667175 -2.6667252l23.67443 0c0.70726013 0 1.3855515 0.28096008 1.8856583 0.7810669c0.5001068 0.5001068 0.7810669 1.1783981 0.7810669 1.8856583l0 10.666557c0 1.472786 -1.1939392 2.6667175 -2.6667252 2.6667175l-23.67443 0c-1.472786 0 -2.6667175 -1.1939316 -2.6667175 -2.6667175z" fill-rule="evenodd"/><path stroke="#ffc000" stroke-width="1.0" stroke-linejoin="round" stroke-linecap="butt" d="m100.69554 95.941l0 0c0 -1.4727936 1.1939316 -2.6667252 2.6667175 -2.6667252l23.67443 0c0.70726013 0 1.3855515 0.28096008 1.8856583 0.7810669c0.5001068 0.5001068 0.7810669 1.1783981 0.7810669 1.8856583l0 10.666557c0 1.472786 -1.1939392 2.6667175 -2.6667252 2.6667175l-23.67443 0c-1.472786 0 -2.6667175 -1.1939316 -2.6667175 -2.6667175z" fill-rule="evenodd"/><path fill="#ffc000" d="m100.69554 133.10373l0 0c0 -1.4727936 1.1939316 -2.6667175 2.6667175 -2.6667175l23.67443 0c0.70726013 0 1.3855515 0.28096008 1.8856583 0.7810669c0.5001068 0.5001068 0.7810669 1.1783905 0.7810669 1.8856506l0 10.666565c0 1.4727783 -1.1939392 2.6667175 -2.6667252 2.6667175l-23.67443 0c-1.472786 0 -2.6667175 -1.1939392 -2.6667175 -2.6667175z" fill-rule="evenodd"/><path stroke="#ffc000" stroke-width="1.0" stroke-linejoin="round" stroke-linecap="butt" d="m100.69554 133.10373l0 0c0 -1.4727936 1.1939316 -2.6667175 2.6667175 -2.6667175l23.67443 0c0.70726013 0 1.3855515 0.28096008 1.8856583 0.7810669c0.5001068 0.5001068 0.7810669 1.1783905 0.7810669 1.8856506l0 10.666565c0 1.4727783 -1.1939392 2.6667175 -2.6667252 2.6667175l-23.67443 0c-1.472786 0 -2.6667175 -1.1939392 -2.6667175 -2.6667175z" fill-rule="evenodd"/><path fill="#ffffff" d="m100.69554 170.26646l0 0c0 -1.4727936 1.1939316 -2.6667328 2.6667175 -2.6667328l23.67443 0c0.70726013 0 1.3855515 0.28096008 1.8856583 0.7810669c0.5001068 0.5001068 0.7810669 1.1784058 0.7810669 1.8856659l0 10.66655c0 1.4727936 -1.1939392 2.6667175 -2.6667252 2.6667175l-23.67443 0c-1.472786 0 -2.6667175 -1.193924 -2.6667175 -2.6667175z" fill-rule="evenodd"/><path stroke="#00b0f0" stroke-width="1.0" stroke-linejoin="round" stroke-linecap="butt" d="m100.69554 170.26646l0 0c0 -1.4727936 1.1939316 -2.6667328 2.6667175 -2.6667328l23.67443 0c0.70726013 0 1.3855515 0.28096008 1.8856583 0.7810669c0.5001068 0.5001068 0.7810669 1.1784058 0.7810669 1.8856659l0 10.66655c0 1.4727936 -1.1939392 2.6667175 -2.6667252 2.6667175l-23.67443 0c-1.472786 0 -2.6667175 -1.193924 -2.6667175 -2.6667175z" fill-rule="evenodd"/><path fill="#ffffff" d="m148.69554 59.754646l0 0c0 -1.4727898 1.193924 -2.6667213 2.6667175 -2.6667213l23.674438 0c0.70726013 0 1.3855438 0.28096008 1.8856506 0.7810669c0.5001068 0.5001068 0.7810669 1.1783981 0.7810669 1.8856544l0 10.666557c0 1.4727936 -1.1939392 2.6667252 -2.6667175 2.6667252l-23.674438 0c-1.4727936 0 -2.6667175 -1.1939316 -2.6667175 -2.6667252z" fill-rule="evenodd"/><path stroke="#00b0f0" stroke-width="1.0" stroke-linejoin="round" stroke-linecap="butt" d="m148.69554 59.754646l0 0c0 -1.4727898 1.193924 -2.6667213 2.6667175 -2.6667213l23.674438 0c0.70726013 0 1.3855438 0.28096008 1.8856506 0.7810669c0.5001068 0.5001068 0.7810669 1.1783981 0.7810669 1.8856544l0 10.666557c0 1.4727936 -1.1939392 2.6667252 -2.6667175 2.6667252l-23.674438 0c-1.4727936 0 -2.6667175 -1.1939316 -2.6667175 -2.6667252z" fill-rule="evenodd"/><path fill="#ffffff" d="m148.69554 95.941l0 0c0 -1.4727936 1.193924 -2.6667252 2.6667175 -2.6667252l23.674438 0c0.70726013 0 1.3855438 0.28096008 1.8856506 0.7810669c0.5001068 0.5001068 0.7810669 1.1783981 0.7810669 1.8856583l0 10.666557c0 1.472786 -1.1939392 2.6667175 -2.6667175 2.6667175l-23.674438 0c-1.4727936 0 -2.6667175 -1.1939316 -2.6667175 -2.6667175z" fill-rule="evenodd"/><path stroke="#00b0f0" stroke-width="1.0" stroke-linejoin="round" stroke-linecap="butt" d="m148.69554 95.941l0 0c0 -1.4727936 1.193924 -2.6667252 2.6667175 -2.6667252l23.674438 0c0.70726013 0 1.3855438 0.28096008 1.8856506 0.7810669c0.5001068 0.5001068 0.7810669 1.1783981 0.7810669 1.8856583l0 10.666557c0 1.472786 -1.1939392 2.6667175 -2.6667175 2.6667175l-23.674438 0c-1.4727936 0 -2.6667175 -1.1939316 -2.6667175 -2.6667175z" fill-rule="evenodd"/><path fill="#ffffff" d="m148.69554 133.10373l0 0c0 -1.4727936 1.193924 -2.6667175 2.6667175 -2.6667175l23.674438 0c0.70726013 0 1.3855438 0.28096008 1.8856506 0.7810669c0.5001068 0.5001068 0.7810669 1.1783905 0.7810669 1.8856506l0 10.666565c0 1.4727783 -1.1939392 2.6667175 -2.6667175 2.6667175l-23.674438 0c-1.4727936 0 -2.6667175 -1.1939392 -2.6667175 -2.6667175z" fill-rule="evenodd"/><path stroke="#00b0f0" stroke-width="1.0" stroke-linejoin="round" stroke-linecap="butt" d="m148.69554 133.10373l0 0c0 -1.4727936 1.193924 -2.6667175 2.6667175 -2.6667175l23.674438 0c0.70726013 0 1.3855438 0.28096008 1.8856506 0.7810669c0.5001068 0.5001068 0.7810669 1.1783905 0.7810669 1.8856506l0 10.666565c0 1.4727783 -1.1939392 2.6667175 -2.6667175 2.6667175l-23.674438 0c-1.4727936 0 -2.6667175 -1.1939392 -2.6667175 -2.6667175z" fill-rule="evenodd"/><path fill="#ffffff" d="m148.69554 170.26646l0 0c0 -1.4727936 1.193924 -2.6667328 2.6667175 -2.6667328l23.674438 0c0.70726013 0 1.3855438 0.28096008 1.8856506 0.7810669c0.5001068 0.5001068 0.7810669 1.1784058 0.7810669 1.8856659l0 10.66655c0 1.4727936 -1.1939392 2.6667175 -2.6667175 2.6667175l-23.674438 0c-1.4727936 0 -2.6667175 -1.193924 -2.6667175 -2.6667175z" fill-rule="evenodd"/><path stroke="#00b0f0" stroke-width="1.0" stroke-linejoin="round" stroke-linecap="butt" d="m148.69554 170.26646l0 0c0 -1.4727936 1.193924 -2.6667328 2.6667175 -2.6667328l23.674438 0c0.70726013 0 1.3855438 0.28096008 1.8856506 0.7810669c0.5001068 0.5001068 0.7810669 1.1784058 0.7810669 1.8856659l0 10.66655c0 1.4727936 -1.1939392 2.6667175 -2.6667175 2.6667175l-23.674438 0c-1.4727936 0 -2.6667175 -1.193924 -2.6667175 -2.6667175z" fill-rule="evenodd"/><path fill="#ffffff" d="m100.69554 59.754646l0 0c0 -1.4727898 1.1939316 -2.6667213 2.6667175 -2.6667213l23.67443 0c0.70726013 0 1.3855515 0.28096008 1.8856583 0.7810669c0.5001068 0.5001068 0.7810669 1.1783981 0.7810669 1.8856544l0 10.666557c0 1.4727936 -1.1939392 2.6667252 -2.6667252 2.6667252l-23.67443 0c-1.472786 0 -2.6667175 -1.1939316 -2.6667175 -2.6667252z" fill-rule="evenodd"/><path stroke="#00b0f0" stroke-width="1.0" stroke-linejoin="round" stroke-linecap="butt" d="m100.69554 59.754646l0 0c0 -1.4727898 1.1939316 -2.6667213 2.6667175 -2.6667213l23.67443 0c0.70726013 0 1.3855515 0.28096008 1.8856583 0.7810669c0.5001068 0.5001068 0.7810669 1.1783981 0.7810669 1.8856544l0 10.666557c0 1.4727936 -1.1939392 2.6667252 -2.6667252 2.6667252l-23.67443 0c-1.472786 0 -2.6667175 -1.1939316 -2.6667175 -2.6667252z" fill-rule="evenodd"/><path fill="#ffc000" d="m4.695538 95.941l0 0c0 -1.4727936 1.1939311 -2.6667252 2.66672 -2.6667252l23.674435 0c0.7072582 0 1.3855495 0.28096008 1.8856564 0.7810669c0.5001068 0.5001068 0.7810631 1.1783981 0.7810631 1.8856583l0 10.666557c0 1.472786 -1.1939316 2.6667175 -2.6667194 2.6667175l-23.674435 0c-1.4727888 0 -2.66672 -1.1939316 -2.66672 -2.6667175z" fill-rule="evenodd"/><path stroke="#ffc000" stroke-width="1.0" stroke-linejoin="round" stroke-linecap="butt" d="m4.695538 95.941l0 0c0 -1.4727936 1.1939311 -2.6667252 2.66672 -2.6667252l23.674435 0c0.7072582 0 1.3855495 0.28096008 1.8856564 0.7810669c0.5001068 0.5001068 0.7810631 1.1783981 0.7810631 1.8856583l0 10.666557c0 1.472786 -1.1939316 2.6667175 -2.6667194 2.6667175l-23.674435 0c-1.4727888 0 -2.66672 -1.1939316 -2.66672 -2.6667175z" fill-rule="evenodd"/><path fill="#ffffff" d="m4.695538 133.10373l0 0c0 -1.4727936 1.1939311 -2.6667175 2.66672 -2.6667175l23.674435 0c0.7072582 0 1.3855495 0.28096008 1.8856564 0.7810669c0.5001068 0.5001068 0.7810631 1.1783905 0.7810631 1.8856506l0 10.666565c0 1.4727783 -1.1939316 2.6667175 -2.6667194 2.6667175l-23.674435 0c-1.4727888 0 -2.66672 -1.1939392 -2.66672 -2.6667175z" fill-rule="evenodd"/><path stroke="#00b0f0" stroke-width="1.0" stroke-linejoin="round" stroke-linecap="butt" d="m4.695538 133.10373l0 0c0 -1.4727936 1.1939311 -2.6667175 2.66672 -2.6667175l23.674435 0c0.7072582 0 1.3855495 0.28096008 1.8856564 0.7810669c0.5001068 0.5001068 0.7810631 1.1783905 0.7810631 1.8856506l0 10.666565c0 1.4727783 -1.1939316 2.6667175 -2.6667194 2.6667175l-23.674435 0c-1.4727888 0 -2.66672 -1.1939392 -2.66672 -2.6667175z" fill-rule="evenodd"/><path fill="#ffffff" d="m4.695538 170.26646l0 0c0 -1.4727936 1.1939311 -2.6667328 2.66672 -2.6667328l23.674435 0c0.7072582 0 1.3855495 0.28096008 1.8856564 0.7810669c0.5001068 0.5001068 0.7810631 1.1784058 0.7810631 1.8856659l0 10.66655c0 1.4727936 -1.1939316 2.6667175 -2.6667194 2.6667175l-23.674435 0c-1.4727888 0 -2.66672 -1.193924 -2.66672 -2.6667175z" fill-rule="evenodd"/><path stroke="#00b0f0" stroke-width="1.0" stroke-linejoin="round" stroke-linecap="butt" d="m4.695538 170.26646l0 0c0 -1.4727936 1.1939311 -2.6667328 2.66672 -2.6667328l23.674435 0c0.7072582 0 1.3855495 0.28096008 1.8856564 0.7810669c0.5001068 0.5001068 0.7810631 1.1784058 0.7810631 1.8856659l0 10.66655c0 1.4727936 -1.1939316 2.6667175 -2.6667194 2.6667175l-23.674435 0c-1.4727888 0 -2.66672 -1.193924 -2.66672 -2.6667175z" fill-rule="evenodd"/><path fill="#ffffff" d="m52.695538 59.754646l0 0c0 -1.4727898 1.1939316 -2.6667213 2.6667213 -2.6667213l23.67443 0c0.70726013 0 1.3855515 0.28096008 1.8856583 0.7810669c0.5001068 0.5001068 0.7810669 1.1783981 0.7810669 1.8856544l0 10.666557c0 1.4727936 -1.1939316 2.6667252 -2.6667252 2.6667252l-23.67443 0c-1.4727898 0 -2.6667213 -1.1939316 -2.6667213 -2.6667252z" fill-rule="evenodd"/><path stroke="#00b0f0" stroke-width="1.0" stroke-linejoin="round" stroke-linecap="butt" d="m52.695538 59.754646l0 0c0 -1.4727898 1.1939316 -2.6667213 2.6667213 -2.6667213l23.67443 0c0.70726013 0 1.3855515 0.28096008 1.8856583 0.7810669c0.5001068 0.5001068 0.7810669 1.1783981 0.7810669 1.8856544l0 10.666557c0 1.4727936 -1.1939316 2.6667252 -2.6667252 2.6667252l-23.67443 0c-1.4727898 0 -2.6667213 -1.1939316 -2.6667213 -2.6667252z" fill-rule="evenodd"/><path fill="#ffffff" d="m52.695538 95.941l0 0c0 -1.4727936 1.1939316 -2.6667252 2.6667213 -2.6667252l23.67443 0c0.70726013 0 1.3855515 0.28096008 1.8856583 0.7810669c0.5001068 0.5001068 0.7810669 1.1783981 0.7810669 1.8856583l0 10.666557c0 1.472786 -1.1939316 2.6667175 -2.6667252 2.6667175l-23.67443 0c-1.4727898 0 -2.6667213 -1.1939316 -2.6667213 -2.6667175z" fill-rule="evenodd"/><path stroke="#00b0f0" stroke-width="1.0" stroke-linejoin="round" stroke-linecap="butt" d="m52.695538 95.941l0 0c0 -1.4727936 1.1939316 -2.6667252 2.6667213 -2.6667252l23.67443 0c0.70726013 0 1.3855515 0.28096008 1.8856583 0.7810669c0.5001068 0.5001068 0.7810669 1.1783981 0.7810669 1.8856583l0 10.666557c0 1.472786 -1.1939316 2.6667175 -2.6667252 2.6667175l-23.67443 0c-1.4727898 0 -2.6667213 -1.1939316 -2.6667213 -2.6667175z" fill-rule="evenodd"/><path fill="#ffffff" d="m52.695538 133.10373l0 0c0 -1.4727936 1.1939316 -2.6667175 2.6667213 -2.6667175l23.67443 0c0.70726013 0 1.3855515 0.28096008 1.8856583 0.7810669c0.5001068 0.5001068 0.7810669 1.1783905 0.7810669 1.8856506l0 10.666565c0 1.4727783 -1.1939316 2.6667175 -2.6667252 2.6667175l-23.67443 0c-1.4727898 0 -2.6667213 -1.1939392 -2.6667213 -2.6667175z" fill-rule="evenodd"/><path stroke="#00b0f0" stroke-width="1.0" stroke-linejoin="round" stroke-linecap="butt" d="m52.695538 133.10373l0 0c0 -1.4727936 1.1939316 -2.6667175 2.6667213 -2.6667175l23.67443 0c0.70726013 0 1.3855515 0.28096008 1.8856583 0.7810669c0.5001068 0.5001068 0.7810669 1.1783905 0.7810669 1.8856506l0 10.666565c0 1.4727783 -1.1939316 2.6667175 -2.6667252 2.6667175l-23.67443 0c-1.4727898 0 -2.6667213 -1.1939392 -2.6667213 -2.6667175z" fill-rule="evenodd"/><path fill="#ffffff" d="m52.695538 170.26646l0 0c0 -1.4727936 1.1939316 -2.6667328 2.6667213 -2.6667328l23.67443 0c0.70726013 0 1.3855515 0.28096008 1.8856583 0.7810669c0.5001068 0.5001068 0.7810669 1.1784058 0.7810669 1.8856659l0 10.66655c0 1.4727936 -1.1939316 2.6667175 -2.6667252 2.6667175l-23.67443 0c-1.4727898 0 -2.6667213 -1.193924 -2.6667213 -2.6667175z" fill-rule="evenodd"/><path stroke="#00b0f0" stroke-width="1.0" stroke-linejoin="round" stroke-linecap="butt" d="m52.695538 170.26646l0 0c0 -1.4727936 1.1939316 -2.6667328 2.6667213 -2.6667328l23.67443 0c0.70726013 0 1.3855515 0.28096008 1.8856583 0.7810669c0.5001068 0.5001068 0.7810669 1.1784058 0.7810669 1.8856659l0 10.66655c0 1.4727936 -1.1939316 2.6667175 -2.6667252 2.6667175l-23.67443 0c-1.4727898 0 -2.6667213 -1.193924 -2.6667213 -2.6667175z" fill-rule="evenodd"/><path fill="#ffc000" d="m4.695538 59.754646l0 0c0 -1.4727898 1.1939311 -2.6667213 2.66672 -2.6667213l23.674435 0c0.7072582 0 1.3855495 0.28096008 1.8856564 0.7810669c0.5001068 0.5001068 0.7810631 1.1783981 0.7810631 1.8856544l0 10.666557c0 1.4727936 -1.1939316 2.6667252 -2.6667194 2.6667252l-23.674435 0c-1.4727888 0 -2.66672 -1.1939316 -2.66672 -2.6667252z" fill-rule="evenodd"/><path stroke="#ffc000" stroke-width="1.0" stroke-linejoin="round" stroke-linecap="butt" d="m4.695538 59.754646l0 0c0 -1.4727898 1.1939311 -2.6667213 2.66672 -2.6667213l23.674435 0c0.7072582 0 1.3855495 0.28096008 1.8856564 0.7810669c0.5001068 0.5001068 0.7810631 1.1783981 0.7810631 1.8856544l0 10.666557c0 1.4727936 -1.1939316 2.6667252 -2.6667194 2.6667252l-23.674435 0c-1.4727888 0 -2.66672 -1.1939316 -2.66672 -2.6667252z" fill-rule="evenodd"/><path fill="#ffc000" d="m63.17323 8.843937l0 0c0 -2.8962913 2.3479042 -5.2441993 5.244198 -5.2441993l155.52734 0c1.3908539 0 2.7247314 0.55251217 3.7082062 1.5359902c0.98347473 0.98347807 1.5359955 2.3173609 1.5359955 3.708209l0 20.976168c0 2.8962917 -2.3479156 5.2441998 -5.2442017 5.2441998l-155.52734 0l0 0c-2.8962936 0 -5.244198 -2.347908 -5.244198 -5.2441998z" fill-rule="evenodd"/><path fill="#000000" d="m88.62642 23.41077q0 0.078125 -0.0625 0.140625q-0.046875 0.0625 -0.171875 0.109375q-0.109375 0.03125 -0.3125 0.046875q-0.1875 0.03125 -0.484375 0.03125q-0.296875 0 -0.5 -0.03125q-0.203125 -0.015625 -0.3125 -0.046875q-0.109375 -0.046875 -0.171875 -0.109375q-0.046875 -0.0625 -0.046875 -0.140625l0 -4.09375l-3.78125 0l0 4.09375q0 0.078125 -0.046875 0.140625q-0.046875 0.0625 -0.171875 0.109375q-0.109375 0.03125 -0.3125 0.046875q-0.1875 0.03125 -0.484375 0.03125q-0.296875 0 -0.5 -0.03125q-0.203125 -0.015625 -0.328125 -0.046875q-0.109375 -0.046875 -0.15625 -0.109375q-0.046875 -0.0625 -0.046875 -0.140625l0 -9.546876q0 -0.078125 0.046875 -0.140625q0.046875 -0.0625 0.15625 -0.09375q0.125 -0.046875 0.328125 -0.0625q0.203125 -0.03125 0.5 -0.03125q0.296875 0 0.484375 0.03125q0.203125 0.015625 0.3125 0.0625q0.125 0.03125 0.171875 0.09375q0.046875 0.0625 0.046875 0.140625l0 3.703126l3.78125 0l0 -3.703126q0 -0.078125 0.046875 -0.140625q0.0625 -0.0625 0.171875 -0.09375q0.109375 -0.046875 0.3125 -0.0625q0.203125 -0.03125 0.5 -0.03125q0.296875 0 0.484375 0.03125q0.203125 0.015625 0.3125 0.0625q0.125 0.03125 0.171875 0.09375q0.0625 0.0625 0.0625 0.140625l0 9.546876zm4.046875 0.015625q0 0.078125 -0.046875 0.140625q-0.046875 0.046875 -0.15625 0.09375q-0.109375 0.046875 -0.296875 0.0625q-0.1875 0.015625 -0.484375 0.015625q-0.28125 0 -0.46875 -0.015625q-0.1875 -0.015625 -0.3125 -0.0625q-0.109375 -0.046875 -0.15625 -0.09375q-0.046875 -0.0625 -0.046875 -0.140625l0 -6.953125q0 -0.078125 0.046875 -0.140625q0.046875 -0.0625 0.15625 -0.09375q0.125 -0.046875 0.3125 -0.0625q0.1875 -0.03125 0.46875 -0.03125q0.296875 0 0.484375 0.03125q0.1875 0.015625 0.296875 0.0625q0.109375 0.03125 0.15625 0.09375q0.046875 0.0625 0.046875 0.140625l0 6.953125zm0.15625 -9.328126q0 0.59375 -0.25 0.828125q-0.234375 0.21875 -0.890625 0.21875q-0.671875 0 -0.90625 -0.21875q-0.21875 -0.21875 -0.21875 -0.796875q0 -0.59375 0.234375 -0.8125q0.234375 -0.234375 0.90625 -0.234375q0.65625 0 0.890625 0.21875q0.234375 0.21875 0.234375 0.796875zm8.0859375 2.843751q0 0.375 -0.09375 0.5625q-0.078125 0.171875 -0.203125 0.171875l-0.8125 0q0.171875 0.1875 0.234375 0.421875q0.078125 0.234375 0.078125 0.5q0 0.609375 -0.203125 1.078125q-0.203125 0.46875 -0.578125 0.796875q-0.375 0.328125 -0.921875 0.5q-0.53125 0.15625 -1.1875 0.15625q-0.328125 0 -0.640625 -0.078125q-0.296875 -0.078125 -0.46875 -0.1875q-0.09375 0.09375 -0.171875 0.234375q-0.0625 0.140625 -0.0625 0.3125q0 0.234375 0.1875 0.375q0.203125 0.140625 0.5625 0.15625l1.703125 0.0625q0.59375 0.03125 1.046875 0.171875q0.46875 0.140625 0.78125 0.40625q0.328125 0.265625 0.484375 0.640625q0.171875 0.359375 0.171875 0.828125q0 0.515625 -0.234375 0.96875q-0.21875 0.46875 -0.671875 0.796875q-0.453125 0.34375 -1.140625 0.53125q-0.671875 0.203125 -1.59375 0.203125q-0.890625 0 -1.515625 -0.140625q-0.625 -0.140625 -1.03125 -0.390625q-0.40625 -0.25 -0.59375 -0.609375q-0.171875 -0.34375 -0.171875 -0.75q0 -0.265625 0.0625 -0.5q0.0625 -0.234375 0.1875 -0.453125q0.140625 -0.21875 0.328125 -0.40625q0.1875 -0.203125 0.421875 -0.375q-0.328125 -0.1875 -0.515625 -0.484375q-0.1875 -0.3125 -0.1875 -0.6875q0 -0.453125 0.203125 -0.828125q0.21875 -0.390625 0.5625 -0.6875q-0.28125 -0.28125 -0.453125 -0.65625q-0.15625 -0.390625 -0.15625 -0.953125q0 -0.609375 0.21875 -1.09375q0.21875 -0.484375 0.59375 -0.8125q0.390625 -0.328125 0.921875 -0.5q0.53125 -0.1875 1.171875 -0.1875q0.328125 0 0.625 0.046875q0.296875 0.03125 0.5625 0.109375l2.203125 0q0.140625 0 0.21875 0.171875q0.078125 0.171875 0.078125 0.578125zm-2.515625 1.640625q0 -0.5625 -0.3125 -0.875q-0.3125 -0.3125 -0.890625 -0.3125q-0.28125 0 -0.5 0.109375q-0.21875 0.09375 -0.375 0.265625q-0.140625 0.15625 -0.21875 0.390625q-0.0625 0.21875 -0.0625 0.453125q0 0.53125 0.3125 0.84375q0.3125 0.3125 0.875 0.3125q0.296875 0 0.515625 -0.09375q0.21875 -0.09375 0.359375 -0.25q0.140625 -0.171875 0.21875 -0.390625q0.078125 -0.21875 0.078125 -0.453125zm0.453125 5.578125q0 -0.359375 -0.28125 -0.546875q-0.28125 -0.1875 -0.765625 -0.203125l-1.40625 -0.046875q-0.203125 0.15625 -0.328125 0.296875q-0.109375 0.140625 -0.1875 0.265625q-0.078125 0.125 -0.109375 0.234375q-0.015625 0.125 -0.015625 0.25q0 0.390625 0.390625 0.59375q0.40625 0.203125 1.125 0.203125q0.4375 0 0.734375 -0.09375q0.3125 -0.09375 0.5 -0.25q0.1875 -0.140625 0.265625 -0.328125q0.078125 -0.171875 0.078125 -0.375zm10.0234375 -0.734375q0 0.078125 -0.046875 0.140625q-0.046875 0.046875 -0.15625 0.09375q-0.109375 0.046875 -0.296875 0.0625q-0.1875 0.015625 -0.46875 0.015625q-0.296875 0 -0.484375 -0.015625q-0.1875 -0.015625 -0.296875 -0.0625q-0.109375 -0.046875 -0.15625 -0.09375q-0.046875 -0.0625 -0.046875 -0.140625l0 -3.984375q0 -0.5 -0.078125 -0.78125q-0.078125 -0.296875 -0.21875 -0.5q-0.140625 -0.21875 -0.359375 -0.328125q-0.21875 -0.109375 -0.515625 -0.109375q-0.375 0 -0.765625 0.28125q-0.375 0.265625 -0.796875 0.78125l0 4.640625q0 0.078125 -0.046875 0.140625q-0.046875 0.046875 -0.15625 0.09375q-0.109375 0.046875 -0.296875 0.0625q-0.1875 0.015625 -0.484375 0.015625q-0.28125 0 -0.46875 -0.015625q-0.1875 -0.015625 -0.3125 -0.0625q-0.109375 -0.046875 -0.15625 -0.09375q-0.046875 -0.0625 -0.046875 -0.140625l0 -10.281251q0 -0.078125 0.046875 -0.140625q0.046875 -0.0625 0.15625 -0.09375q0.125 -0.046875 0.3125 -0.0625q0.1875 -0.03125 0.46875 -0.03125q0.296875 0 0.484375 0.03125q0.1875 0.015625 0.296875 0.0625q0.109375 0.03125 0.15625 0.09375q0.046875 0.0625 0.046875 0.140625l0 3.859376q0.515625 -0.5 1.03125 -0.75q0.53125 -0.25 1.109375 -0.25q0.703125 0 1.1875 0.234375q0.5 0.234375 0.796875 0.640625q0.296875 0.40625 0.421875 0.953125q0.140625 0.546875 0.140625 1.3125l0 4.28125zm12.984375 -2.765625q0 0.53125 -0.15625 0.96875q-0.140625 0.4375 -0.40625 0.78125q-0.25 0.328125 -0.625 0.578125q-0.359375 0.234375 -0.796875 0.390625q-0.4375 0.15625 -0.9375 0.234375q-0.484375 0.078125 -1.09375 0.078125l-2.6875 0q-0.265625 0 -0.4375 -0.15625q-0.171875 -0.15625 -0.171875 -0.5l0 -8.812501q0 -0.34375 0.171875 -0.484375q0.171875 -0.15625 0.4375 -0.15625l2.53125 0q0.9375 0 1.578125 0.15625q0.640625 0.15625 1.078125 0.46875q0.453125 0.3125 0.6875 0.796875q0.234375 0.484375 0.234375 1.140626q0 0.375 -0.09375 0.703125q-0.09375 0.3125 -0.28125 0.578125q-0.171875 0.265625 -0.4375 0.46875q-0.265625 0.203125 -0.59375 0.328125q0.421875 0.078125 0.78125 0.28125q0.375 0.1875 0.640625 0.5q0.265625 0.3125 0.421875 0.734375q0.15625 0.40625 0.15625 0.921875zm-2.65625 -4.265625q0 -0.296875 -0.09375 -0.53125095q-0.09375 -0.25 -0.28125 -0.40625q-0.1875 -0.171875 -0.46875 -0.25q-0.28125 -0.09375 -0.765625 -0.09375l-1.03125 0l0 2.625001l1.140625 0q0.453125 0 0.71875 -0.09375q0.265625 -0.109375 0.4375 -0.296875q0.171875 -0.1875 0.25 -0.421875q0.09375 -0.25 0.09375 -0.53125zm0.53125 4.328125q0 -0.34375 -0.125 -0.625q-0.109375 -0.28125 -0.34375 -0.46875q-0.21875 -0.1875 -0.578125 -0.28125q-0.34375 -0.109375 -0.90625 -0.109375l-1.21875 0l0 2.875l1.484375 0q0.421875 0 0.71875 -0.078125q0.296875 -0.09375 0.5 -0.265625q0.21875 -0.1875 0.34375 -0.4375q0.125 -0.265625 0.125 -0.609375zm5.625 2.703125q0 0.078125 -0.046875 0.140625q-0.046875 0.046875 -0.15625 0.09375q-0.109375 0.046875 -0.296875 0.0625q-0.1875 0.015625 -0.484375 0.015625q-0.28125 0 -0.46875 -0.015625q-0.1875 -0.015625 -0.3125 -0.0625q-0.109375 -0.046875 -0.15625 -0.09375q-0.046875 -0.0625 -0.046875 -0.140625l0 -10.281251q0 -0.078125 0.046875 -0.140625q0.046875 -0.0625 0.15625 -0.09375q0.125 -0.046875 0.3125 -0.0625q0.1875 -0.03125 0.46875 -0.03125q0.296875 0 0.484375 0.03125q0.1875 0.015625 0.296875 0.0625q0.109375 0.03125 0.15625 0.09375q0.046875 0.0625 0.046875 0.140625l0 10.281251zm9.0078125 -3.5625q0 0.890625 -0.234375 1.625q-0.234375 0.734375 -0.71875 1.265625q-0.46875 0.53125 -1.1875 0.828125q-0.71875 0.296875 -1.671875 0.296875q-0.9375 0 -1.625 -0.265625q-0.6875 -0.265625 -1.140625 -0.75q-0.453125 -0.5 -0.671875 -1.21875q-0.21875 -0.71875 -0.21875 -1.640625q0 -0.890625 0.234375 -1.625q0.25 -0.734375 0.71875 -1.265625q0.484375 -0.53125 1.1875 -0.8125q0.71875 -0.296875 1.6875 -0.296875q0.9375 0 1.625 0.265625q0.6875 0.25 1.125 0.75q0.453125 0.484375 0.671875 1.203125q0.21875 0.71875 0.21875 1.640625zm-2.015625 0.078125q0 -0.515625 -0.09375 -0.9375q-0.078125 -0.4375 -0.28125 -0.75q-0.1875 -0.328125 -0.515625 -0.5q-0.3125 -0.1875 -0.8125 -0.1875q-0.4375 0 -0.765625 0.15625q-0.328125 0.15625 -0.546875 0.46875q-0.203125 0.3125 -0.3125 0.75q-0.09375 0.421875 -0.09375 0.984375q0 0.515625 0.078125 0.953125q0.09375 0.421875 0.28125 0.75q0.1875 0.3125 0.515625 0.5q0.328125 0.171875 0.8125 0.171875q0.453125 0 0.78125 -0.15625q0.328125 -0.171875 0.53125 -0.46875q0.21875 -0.3125 0.3125 -0.734375q0.109375 -0.4375 0.109375 -1.0zm10.6171875 -0.078125q0 0.890625 -0.234375 1.625q-0.234375 0.734375 -0.71875 1.265625q-0.46875 0.53125 -1.1875 0.828125q-0.71875 0.296875 -1.671875 0.296875q-0.9375 0 -1.625 -0.265625q-0.6875 -0.265625 -1.140625 -0.75q-0.453125 -0.5 -0.671875 -1.21875q-0.21875 -0.71875 -0.21875 -1.640625q0 -0.890625 0.234375 -1.625q0.25 -0.734375 0.71875 -1.265625q0.484375 -0.53125 1.1875 -0.8125q0.71875 -0.296875 1.6875 -0.296875q0.9375 0 1.625 0.265625q0.6875 0.25 1.125 0.75q0.453125 0.484375 0.671875 1.203125q0.21875 0.71875 0.21875 1.640625zm-2.015625 0.078125q0 -0.515625 -0.09375 -0.9375q-0.078125 -0.4375 -0.28125 -0.75q-0.1875 -0.328125 -0.515625 -0.5q-0.3125 -0.1875 -0.8125 -0.1875q-0.4375 0 -0.765625 0.15625q-0.328125 0.15625 -0.546875 0.46875q-0.203125 0.3125 -0.3125 0.75q-0.09375 0.421875 -0.09375 0.984375q0 0.515625 0.078125 0.953125q0.09375 0.421875 0.28125 0.75q0.1875 0.3125 0.515625 0.5q0.328125 0.171875 0.8125 0.171875q0.453125 0 0.78125 -0.15625q0.328125 -0.171875 0.53125 -0.46875q0.21875 -0.3125 0.3125 -0.734375q0.109375 -0.4375 0.109375 -1.0zm10.1796875 3.484375q0 0.078125 -0.046875 0.140625q-0.03125 0.0625 -0.125 0.109375q-0.09375 0.03125 -0.25 0.046875q-0.15625 0.015625 -0.390625 0.015625q-0.25 0 -0.40625 -0.015625q-0.15625 -0.015625 -0.265625 -0.046875q-0.09375 -0.046875 -0.140625 -0.109375q-0.03125 -0.0625 -0.03125 -0.140625l0 -0.78125q-0.546875 0.578125 -1.140625 0.90625q-0.578125 0.328125 -1.296875 0.328125q-0.796875 0 -1.359375 -0.3125q-0.546875 -0.3125 -0.890625 -0.828125q-0.34375 -0.53125 -0.5 -1.234375q-0.15625 -0.703125 -0.15625 -1.46875q0 -0.9375 0.1875 -1.671875q0.203125 -0.75 0.578125 -1.265625q0.390625 -0.53125 0.953125 -0.8125q0.578125 -0.28125 1.328125 -0.28125q0.578125 0 1.046875 0.25q0.484375 0.234375 0.953125 0.6875l0 -3.765626q0 -0.078125 0.046875 -0.140625q0.046875 -0.0625 0.15625 -0.109375q0.109375 -0.046875 0.296875 -0.0625q0.1875 -0.03125 0.484375 -0.03125q0.28125 0 0.46875 0.03125q0.1875 0.015625 0.296875 0.0625q0.109375 0.046875 0.15625 0.109375q0.046875 0.0625 0.046875 0.140625l0 10.250001zm-1.953125 -4.65625q-0.421875 -0.53125 -0.8125 -0.8125q-0.375 -0.28125 -0.796875 -0.28125q-0.390625 0 -0.671875 0.1875q-0.265625 0.1875 -0.4375 0.515625q-0.171875 0.3125 -0.25 0.71875q-0.078125 0.390625 -0.078125 0.796875q0 0.4375 0.0625 0.859375q0.078125 0.40625 0.234375 0.734375q0.15625 0.328125 0.421875 0.53125q0.265625 0.1875 0.671875 0.1875q0.203125 0 0.390625 -0.0625q0.203125 -0.0625 0.390625 -0.1875q0.203125 -0.140625 0.40625 -0.34375q0.21875 -0.21875 0.46875 -0.53125l0 -2.3125zm14.59375 -2.125q0 0.859375 -0.265625 1.515625q-0.265625 0.65625 -0.78125 1.109375q-0.5 0.4375 -1.25 0.671875q-0.734375 0.234375 -1.734375 0.234375l-0.84375 0l0 3.234375q0 0.078125 -0.046875 0.140625q-0.046875 0.0625 -0.171875 0.109375q-0.109375 0.03125 -0.3125 0.046875q-0.1875 0.03125 -0.5 0.03125q-0.296875 0 -0.5 -0.03125q-0.1875 -0.015625 -0.3125 -0.046875q-0.109375 -0.046875 -0.15625 -0.109375q-0.046875 -0.0625 -0.046875 -0.140625l0 -9.093751q0 -0.375 0.1875 -0.546875q0.1875 -0.1875 0.5 -0.1875l2.390625 0q0.359375 0 0.671875 0.03125q0.328125 0.015625 0.78125 0.109375q0.453125 0.09375 0.921875 0.34375q0.46875 0.234375 0.796875 0.609375q0.328125 0.359375 0.5 0.859375q0.171875 0.50000095 0.171875 1.109376zm-2.15625 0.15625q0 -0.53125 -0.1875 -0.87500095q-0.1875 -0.34375 -0.46875 -0.5q-0.265625 -0.171875 -0.5625 -0.21875q-0.296875 -0.046875 -0.625 -0.046875l-0.875 0l0 3.437501l0.921875 0q0.5 0 0.828125 -0.125q0.328125 -0.140625 0.53125 -0.375q0.21875 -0.25 0.328125 -0.578125q0.109375 -0.328125 0.109375 -0.71875zm8.109375 0.296875q0 0.28125 -0.015625 0.46875q-0.015625 0.171875 -0.046875 0.28125q-0.03125 0.09375 -0.09375 0.140625q-0.046875 0.03125 -0.125 0.03125q-0.0625 0 -0.140625 -0.015625q-0.078125 -0.03125 -0.171875 -0.0625q-0.09375 -0.03125 -0.21875 -0.0625q-0.109375 -0.03125 -0.25 -0.03125q-0.171875 0 -0.34375 0.078125q-0.15625 0.0625 -0.328125 0.203125q-0.171875 0.140625 -0.375 0.375q-0.1875 0.234375 -0.40625 0.578125l0 4.34375q0 0.078125 -0.046875 0.140625q-0.046875 0.046875 -0.15625 0.09375q-0.109375 0.046875 -0.296875 0.0625q-0.1875 0.015625 -0.484375 0.015625q-0.28125 0 -0.46875 -0.015625q-0.1875 -0.015625 -0.3125 -0.0625q-0.109375 -0.046875 -0.15625 -0.09375q-0.046875 -0.0625 -0.046875 -0.140625l0 -6.96875q0 -0.078125 0.03125 -0.140625q0.046875 -0.0625 0.140625 -0.09375q0.109375 -0.046875 0.265625 -0.0625q0.171875 -0.015625 0.40625 -0.015625q0.25 0 0.40625 0.015625q0.171875 0.015625 0.265625 0.0625q0.09375 0.03125 0.125 0.09375q0.046875 0.0625 0.046875 0.140625l0 0.859375q0.265625 -0.390625 0.5 -0.640625q0.25 -0.25 0.46875 -0.390625q0.21875 -0.15625 0.4375 -0.21875q0.21875 -0.0625 0.4375 -0.0625q0.109375 0 0.21875 0.015625q0.125 0.015625 0.25 0.046875q0.125 0.015625 0.21875 0.0625q0.09375 0.03125 0.125 0.078125q0.046875 0.03125 0.0625 0.078125q0.03125 0.046875 0.046875 0.125q0.015625 0.078125 0.015625 0.25q0.015625 0.15625 0.015625 0.4375zm7.4609375 2.640625q0 0.359375 -0.15625 0.53125q-0.15625 0.171875 -0.4375 0.171875l-4.25 0q0 0.4375 0.109375 0.8125q0.109375 0.359375 0.328125 0.609375q0.234375 0.25 0.59375 0.390625q0.375 0.125 0.875 0.125q0.515625 0 0.90625 -0.0625q0.390625 -0.078125 0.671875 -0.171875q0.296875 -0.09375 0.484375 -0.15625q0.1875 -0.078125 0.296875 -0.078125q0.078125 0 0.125 0.03125q0.046875 0.015625 0.078125 0.09375q0.03125 0.0625 0.03125 0.203125q0.015625 0.125 0.015625 0.3125q0 0.171875 -0.015625 0.296875q0 0.125 -0.015625 0.21875q-0.015625 0.078125 -0.046875 0.140625q-0.03125 0.046875 -0.078125 0.109375q-0.046875 0.046875 -0.28125 0.140625q-0.21875 0.09375 -0.578125 0.1875q-0.34375 0.09375 -0.796875 0.15625q-0.453125 0.078125 -0.96875 0.078125q-0.9375 0 -1.640625 -0.234375q-0.6875 -0.25 -1.15625 -0.71875q-0.46875 -0.484375 -0.703125 -1.203125q-0.234375 -0.734375 -0.234375 -1.703125q0 -0.9375 0.234375 -1.671875q0.25 -0.75 0.703125 -1.265625q0.46875 -0.53125 1.125 -0.796875q0.671875 -0.28125 1.5 -0.28125q0.875 0 1.484375 0.265625q0.625 0.25 1.015625 0.71875q0.40625 0.453125 0.59375 1.078125q0.1875 0.625 0.1875 1.359375l0 0.3125zm-1.90625 -0.5625q0.03125 -0.828125 -0.328125 -1.296875q-0.359375 -0.484375 -1.09375 -0.484375q-0.375 0 -0.65625 0.140625q-0.28125 0.140625 -0.46875 0.390625q-0.171875 0.234375 -0.28125 0.5625q-0.09375 0.3125 -0.109375 0.6875l2.9375 0zm8.4296875 2.28125q0 0.59375 -0.21875 1.046875q-0.21875 0.453125 -0.625 0.765625q-0.40625 0.296875 -0.96875 0.453125q-0.546875 0.15625 -1.203125 0.15625q-0.390625 0 -0.75 -0.0625q-0.34375 -0.0625 -0.625 -0.15625q-0.28125 -0.09375 -0.46875 -0.1875q-0.1875 -0.09375 -0.28125 -0.171875q-0.078125 -0.078125 -0.125 -0.25q-0.046875 -0.1875 -0.046875 -0.53125q0 -0.21875 0.015625 -0.359375q0.015625 -0.140625 0.046875 -0.21875q0.03125 -0.078125 0.078125 -0.109375q0.046875 -0.03125 0.109375 -0.03125q0.09375 0 0.25 0.109375q0.171875 0.09375 0.421875 0.21875q0.25 0.109375 0.578125 0.21875q0.34375 0.09375 0.765625 0.09375q0.265625 0 0.46875 -0.046875q0.203125 -0.0625 0.359375 -0.15625q0.15625 -0.109375 0.234375 -0.265625q0.078125 -0.15625 0.078125 -0.359375q0 -0.234375 -0.15625 -0.40625q-0.140625 -0.171875 -0.375 -0.296875q-0.234375 -0.125 -0.546875 -0.234375q-0.296875 -0.109375 -0.609375 -0.234375q-0.3125 -0.140625 -0.625 -0.3125q-0.296875 -0.171875 -0.53125 -0.421875q-0.234375 -0.25 -0.390625 -0.59375q-0.140625 -0.359375 -0.140625 -0.84375q0 -0.5 0.1875 -0.921875q0.203125 -0.421875 0.5625 -0.71875q0.375 -0.296875 0.90625 -0.453125q0.53125 -0.171875 1.1875 -0.171875q0.328125 0 0.625 0.046875q0.3125 0.046875 0.5625 0.125q0.25 0.0625 0.421875 0.15625q0.171875 0.078125 0.25 0.140625q0.078125 0.046875 0.109375 0.109375q0.03125 0.0625 0.046875 0.140625q0.015625 0.078125 0.015625 0.203125q0.015625 0.125 0.015625 0.296875q0 0.21875 -0.015625 0.359375q0 0.125 -0.03125 0.203125q-0.03125 0.078125 -0.078125 0.109375q-0.046875 0.015625 -0.109375 0.015625q-0.0625 0 -0.21875 -0.078125q-0.140625 -0.078125 -0.375 -0.171875q-0.21875 -0.09375 -0.515625 -0.171875q-0.28125 -0.09375 -0.65625 -0.09375q-0.265625 0 -0.46875 0.0625q-0.1875 0.046875 -0.3125 0.15625q-0.125 0.09375 -0.1875 0.234375q-0.0625 0.140625 -0.0625 0.296875q0 0.234375 0.140625 0.40625q0.15625 0.15625 0.390625 0.28125q0.25 0.125 0.546875 0.234375q0.3125 0.109375 0.625 0.25q0.328125 0.125 0.625 0.296875q0.3125 0.171875 0.546875 0.421875q0.25 0.25 0.390625 0.59375q0.15625 0.34375 0.15625 0.828125zm6.3828125 0q0 0.59375 -0.21875 1.046875q-0.21875 0.453125 -0.625 0.765625q-0.40625 0.296875 -0.96875 0.453125q-0.546875 0.15625 -1.203125 0.15625q-0.390625 0 -0.75 -0.0625q-0.34375 -0.0625 -0.625 -0.15625q-0.28125 -0.09375 -0.46875 -0.1875q-0.1875 -0.09375 -0.28125 -0.171875q-0.078125 -0.078125 -0.125 -0.25q-0.046875 -0.1875 -0.046875 -0.53125q0 -0.21875 0.015625 -0.359375q0.015625 -0.140625 0.046875 -0.21875q0.03125 -0.078125 0.078125 -0.109375q0.046875 -0.03125 0.109375 -0.03125q0.09375 0 0.25 0.109375q0.171875 0.09375 0.421875 0.21875q0.25 0.109375 0.578125 0.21875q0.34375 0.09375 0.765625 0.09375q0.265625 0 0.46875 -0.046875q0.203125 -0.0625 0.359375 -0.15625q0.15625 -0.109375 0.234375 -0.265625q0.078125 -0.15625 0.078125 -0.359375q0 -0.234375 -0.15625 -0.40625q-0.140625 -0.171875 -0.375 -0.296875q-0.234375 -0.125 -0.546875 -0.234375q-0.296875 -0.109375 -0.609375 -0.234375q-0.3125 -0.140625 -0.625 -0.3125q-0.296875 -0.171875 -0.53125 -0.421875q-0.234375 -0.25 -0.390625 -0.59375q-0.140625 -0.359375 -0.140625 -0.84375q0 -0.5 0.1875 -0.921875q0.203125 -0.421875 0.5625 -0.71875q0.375 -0.296875 0.90625 -0.453125q0.53125 -0.171875 1.1875 -0.171875q0.328125 0 0.625 0.046875q0.3125 0.046875 0.5625 0.125q0.25 0.0625 0.421875 0.15625q0.171875 0.078125 0.25 0.140625q0.078125 0.046875 0.109375 0.109375q0.03125 0.0625 0.046875 0.140625q0.015625 0.078125 0.015625 0.203125q0.015625 0.125 0.015625 0.296875q0 0.21875 -0.015625 0.359375q0 0.125 -0.03125 0.203125q-0.03125 0.078125 -0.078125 0.109375q-0.046875 0.015625 -0.109375 0.015625q-0.0625 0 -0.21875 -0.078125q-0.140625 -0.078125 -0.375 -0.171875q-0.21875 -0.09375 -0.515625 -0.171875q-0.28125 -0.09375 -0.65625 -0.09375q-0.265625 0 -0.46875 0.0625q-0.1875 0.046875 -0.3125 0.15625q-0.125 0.09375 -0.1875 0.234375q-0.0625 0.140625 -0.0625 0.296875q0 0.234375 0.140625 0.40625q0.15625 0.15625 0.390625 0.28125q0.25 0.125 0.546875 0.234375q0.3125 0.109375 0.625 0.25q0.328125 0.125 0.625 0.296875q0.3125 0.171875 0.546875 0.421875q0.25 0.25 0.390625 0.59375q0.15625 0.34375 0.15625 0.828125zm8.085922 1.96875q0 0.078125 -0.046875 0.140625q-0.03125 0.046875 -0.125 0.09375q-0.09375 0.046875 -0.265625 0.0625q-0.15625 0.015625 -0.390625 0.015625q-0.265625 0 -0.421875 -0.015625q-0.15625 -0.015625 -0.25 -0.0625q-0.09375 -0.046875 -0.140625 -0.09375q-0.03125 -0.0625 -0.03125 -0.140625l0 -0.8125q-0.578125 0.625 -1.1875 0.953125q-0.59375 0.3125 -1.234375 0.3125q-0.71875 0 -1.203125 -0.234375q-0.48435974 -0.25 -0.79685974 -0.65625q-0.296875 -0.40625 -0.421875 -0.9375q-0.125 -0.53125 -0.125 -1.328125l0 -4.265625q0 -0.078125 0.03125 -0.140625q0.046875 -0.0625 0.15625 -0.09375q0.125 -0.046875 0.3125 -0.0625q0.1875 -0.015625 0.46875 -0.015625q0.29685974 0 0.48435974 0.015625q0.1875 0.015625 0.296875 0.0625q0.109375 0.03125 0.15625 0.09375q0.046875 0.0625 0.046875 0.140625l0 3.9375q0 0.546875 0.0625 0.84375q0.078125 0.28125 0.21875 0.484375q0.15625 0.203125 0.375 0.328125q0.21875 0.109375 0.515625 0.109375q0.375 0 0.75 -0.265625q0.390625 -0.28125 0.8125 -0.8125l0 -4.625q0 -0.078125 0.046875 -0.140625q0.046875 -0.0625 0.15625 -0.09375q0.109375 -0.046875 0.296875 -0.0625q0.1875 -0.015625 0.484375 -0.015625q0.28125 0 0.46875 0.015625q0.1875 0.015625 0.296875 0.0625q0.109375 0.03125 0.15625 0.09375q0.046875 0.0625 0.046875 0.140625l0 6.96875zm6.4609375 -6.328125q0 0.28125 -0.015625 0.46875q-0.015625 0.171875 -0.046875 0.28125q-0.03125 0.09375 -0.09375 0.140625q-0.046875 0.03125 -0.125 0.03125q-0.0625 0 -0.140625 -0.015625q-0.078125 -0.03125 -0.171875 -0.0625q-0.09375 -0.03125 -0.21875 -0.0625q-0.109375 -0.03125 -0.25 -0.03125q-0.171875 0 -0.34375 0.078125q-0.15625 0.0625 -0.328125 0.203125q-0.171875 0.140625 -0.375 0.375q-0.1875 0.234375 -0.40625 0.578125l0 4.34375q0 0.078125 -0.046875 0.140625q-0.046875 0.046875 -0.15625 0.09375q-0.109375 0.046875 -0.296875 0.0625q-0.1875 0.015625 -0.484375 0.015625q-0.28125 0 -0.46875 -0.015625q-0.1875 -0.015625 -0.3125 -0.0625q-0.109375 -0.046875 -0.15625 -0.09375q-0.046875 -0.0625 -0.046875 -0.140625l0 -6.96875q0 -0.078125 0.03125 -0.140625q0.046875 -0.0625 0.140625 -0.09375q0.109375 -0.046875 0.265625 -0.0625q0.171875 -0.015625 0.40625 -0.015625q0.25 0 0.40625 0.015625q0.171875 0.015625 0.265625 0.0625q0.09375 0.03125 0.125 0.09375q0.046875 0.0625 0.046875 0.140625l0 0.859375q0.265625 -0.390625 0.5 -0.640625q0.25 -0.25 0.46875 -0.390625q0.21875 -0.15625 0.4375 -0.21875q0.21875 -0.0625 0.4375 -0.0625q0.109375 0 0.21875 0.015625q0.125 0.015625 0.25 0.046875q0.125 0.015625 0.21875 0.0625q0.09375 0.03125 0.125 0.078125q0.046875 0.03125 0.0625 0.078125q0.03125 0.046875 0.046875 0.125q0.015625 0.078125 0.015625 0.25q0.015625 0.15625 0.015625 0.4375zm7.4609375 2.640625q0 0.359375 -0.15625 0.53125q-0.15625 0.171875 -0.4375 0.171875l-4.25 0q0 0.4375 0.109375 0.8125q0.109375 0.359375 0.328125 0.609375q0.234375 0.25 0.59375 0.390625q0.375 0.125 0.875 0.125q0.515625 0 0.90625 -0.0625q0.390625 -0.078125 0.671875 -0.171875q0.296875 -0.09375 0.484375 -0.15625q0.1875 -0.078125 0.296875 -0.078125q0.078125 0 0.125 0.03125q0.046875 0.015625 0.078125 0.09375q0.03125 0.0625 0.03125 0.203125q0.015625 0.125 0.015625 0.3125q0 0.171875 -0.015625 0.296875q0 0.125 -0.015625 0.21875q-0.015625 0.078125 -0.046875 0.140625q-0.03125 0.046875 -0.078125 0.109375q-0.046875 0.046875 -0.28125 0.140625q-0.21875 0.09375 -0.578125 0.1875q-0.34375 0.09375 -0.796875 0.15625q-0.453125 0.078125 -0.96875 0.078125q-0.9375 0 -1.640625 -0.234375q-0.6875 -0.25 -1.15625 -0.71875q-0.46875 -0.484375 -0.703125 -1.203125q-0.234375 -0.734375 -0.234375 -1.703125q0 -0.9375 0.234375 -1.671875q0.25 -0.75 0.703125 -1.265625q0.46875 -0.53125 1.125 -0.796875q0.671875 -0.28125 1.5 -0.28125q0.875 0 1.484375 0.265625q0.625 0.25 1.015625 0.71875q0.40625 0.453125 0.59375 1.078125q0.1875 0.625 0.1875 1.359375l0 0.3125zm-1.90625 -0.5625q0.03125 -0.828125 -0.328125 -1.296875q-0.359375 -0.484375 -1.09375 -0.484375q-0.375 0 -0.65625 0.140625q-0.28125 0.140625 -0.46875 0.390625q-0.171875 0.234375 -0.28125 0.5625q-0.09375 0.3125 -0.109375 0.6875l2.9375 0z" fill-rule="nonzero"/></g></svg>