<svg version="1.1" viewBox="0.0 0.0 576.0 120.0" fill="none" stroke="none" stroke-linecap="square" stroke-miterlimit="10" xmlns:xlink="http://www.w3.org/1999/xlink" xmlns="http://www.w3.org/2000/svg"><clipPath id="p.0"><path d="m0 0l576.0 0l0 120.0l-576.0 0l0 -120.0z" clip-rule="nonzero"/></clipPath><g clip-path="url(#p.0)"><path fill="#ffffff" d="m0 0l576.0 0l0 120.0l-576.0 0z" fill-rule="evenodd"/><path fill="#00b0f0" d="m8.398832 60.000423l0 0c0 -32.89473 26.666449 -59.56118 59.56118 -59.56118l0 0c15.7966 0 30.94622 6.2751775 42.11611 17.445065c11.169884 11.169888 17.44506 26.319506 17.44506 42.11611l0 0c0 32.894733 -26.666443 59.561176 -59.561172 59.561176l0 0c-32.894733 0 -59.56118 -26.666443 -59.56118 -59.561176z" fill-rule="evenodd"/><path fill="#ffffff" d="m15.306735 60.000336l0 0c0 -29.079544 23.573627 -52.65317 52.65317 -52.65317l0 0c13.964485 0 27.357025 5.547372 37.231407 15.421756c9.87439 9.874386 15.421761 23.266926 15.421761 37.231415l0 0c0 29.079544 -23.573631 52.653168 -52.653168 52.653168l0 0c-29.079544 0 -52.65317 -23.573624 -52.65317 -52.653168z" fill-rule="evenodd"/><path fill="#ff0000" d="m67.14499 48.246216c13.411461 -34.918533 65.71617 0 0 44.895256c-65.71617 -44.895256 -13.411465 -79.81379 0 -44.895256z" fill-rule="evenodd"/><path fill="#ffffff" d="m456.7065 24.24516l0 0c0 -9.874051 8.004517 -17.878551 17.87857 -17.878551l71.512024 0l0 0c4.741699 0 9.289185 1.8836274 12.64209 5.236506c3.3528442 3.3528786 5.236511 7.900359 5.236511 12.642045l0 71.512054c0 9.874046 -8.004517 17.878548 -17.878601 17.878548l-71.512024 0c-9.874054 0 -17.87857 -8.004501 -17.87857 -17.878548z" fill-rule="evenodd"/><path stroke="#7f7f7f" stroke-width="2.0" stroke-linejoin="round" stroke-linecap="butt" d="m456.7065 24.24516l0 0c0 -9.874051 8.004517 -17.878551 17.87857 -17.878551l71.512024 0l0 0c4.741699 0 9.289185 1.8836274 12.64209 5.236506c3.3528442 3.3528786 5.236511 7.900359 5.236511 12.642045l0 71.512054c0 9.874046 -8.004517 17.878548 -17.878601 17.878548l-71.512024 0c-9.874054 0 -17.87857 -8.004501 -17.87857 -17.878548z" fill-rule="evenodd"/><path fill="#ff0000" d="m481.00342 51.272587l20.612 0l0 -18.544376l17.457031 0l0 18.544376l20.612 0l0 17.457027l-20.612 0l0 18.544373l-17.457031 0l0 -18.544373l-20.612 0z" fill-rule="evenodd"/><path fill="#000000" fill-opacity="0.0" d="m120.613075 60.000336l336.0981 0" fill-rule="evenodd"/><path stroke="#00b0f0" stroke-width="1.0" stroke-linejoin="round" stroke-linecap="butt" stroke-dasharray="4.0,3.0" d="m126.613075 60.00033l324.09814 0" fill-rule="evenodd"/><path fill="#00b0f0" stroke="#00b0f0" stroke-width="1.0" stroke-linecap="butt" d="m126.613075 58.348602l-4.5380936 1.6517296l4.5380936 1.6517334z" fill-rule="evenodd"/><path fill="#00b0f0" stroke="#00b0f0" stroke-width="1.0" stroke-linecap="butt" d="m450.7112 61.652065l4.538086 -1.6517334l-4.538086 -1.6517296z" fill-rule="evenodd"/></g></svg>