<svg version="1.1" viewBox="0.0 0.0 23.03937007874016 24.96062992125984" fill="none" stroke="transparent" stroke-linecap="square" stroke-miterlimit="10" xmlns:xlink="http://www.w3.org/1999/xlink" xmlns="http://www.w3.org/2000/svg"><clipPath id="p.0"><path d="m0 0l23.03937 0l0 24.96063l-23.03937 0l0 -24.96063z" clip-rule="nonzero"/></clipPath><g clip-path="url(#p.0)"><path fill="#ffffff" d="m0 0l23.03937 0l0 24.96063l-23.03937 0z" fill-rule="evenodd"/><path fill="#ffffff" d="m1.0366281 9.673618l0 0c0 -0.33050823 0.26792943 -0.5984373 0.5984371 -0.5984373l2.3936772 0l0 0c0.15871525 0 0.31093025 0.06304932 0.42315865 0.17527866c0.11222887 0.11222839 0.17527819 0.2644434 0.17527819 0.42315865l0 6.456669c0 0.33050728 -0.26792955 0.59843636 -0.59843683 0.59843636l-2.3936772 0c-0.33050764 0 -0.5984371 -0.26792908 -0.5984371 -0.59843636z" fill-rule="evenodd"/><path stroke="#8c8c8c" stroke-width="1.0" stroke-linejoin="round" stroke-linecap="butt" d="m1.0366281 9.673618l0 0c0 -0.33050823 0.26792943 -0.5984373 0.5984371 -0.5984373l2.3936772 0l0 0c0.15871525 0 0.31093025 0.06304932 0.42315865 0.17527866c0.11222887 0.11222839 0.17527819 0.2644434 0.17527819 0.42315865l0 6.456669c0 0.33050728 -0.26792955 0.59843636 -0.59843683 0.59843636l-2.3936772 0c-0.33050764 0 -0.5984371 -0.26792908 -0.5984371 -0.59843636z" fill-rule="evenodd"/><path fill="#ffffff" d="m6.8249826 1.3901536l0 0c0 -0.33050764 0.26792955 -0.59843713 0.5984373 -0.59843713l2.3936768 0l0 0c0.15871525 0 0.31093025 0.063049495 0.42315865 0.17527819c0.11222935 0.11222881 0.17527866 0.26444358 0.17527866 0.42315894l0 14.740133c0 0.33050728 -0.26793003 0.59843636 -0.5984373 0.59843636l-2.3936768 0c-0.33050776 0 -0.5984373 -0.26792908 -0.5984373 -0.59843636z" fill-rule="evenodd"/><path stroke="#8c8c8c" stroke-width="1.0" stroke-linejoin="round" stroke-linecap="butt" d="m6.8249826 1.3901536l0 0c0 -0.33050764 0.26792955 -0.59843713 0.5984373 -0.59843713l2.3936768 0l0 0c0.15871525 0 0.31093025 0.063049495 0.42315865 0.17527819c0.11222935 0.11222881 0.17527866 0.26444358 0.17527866 0.42315894l0 14.740133c0 0.33050728 -0.26793003 0.59843636 -0.5984373 0.59843636l-2.3936768 0c-0.33050776 0 -0.5984373 -0.26792908 -0.5984373 -0.59843636z" fill-rule="evenodd"/><path fill="#ffffff" d="m12.613337 7.468894l0 0c0 -0.33050776 0.26793003 -0.5984373 0.5984373 -0.5984373l2.3936768 0l0 0c0.1587162 0 0.31093025 0.06304932 0.4231596 0.17527819c0.11222839 0.11222887 0.17527771 0.2644434 0.17527771 0.42315912l0 8.661393c0 0.33050728 -0.26792908 0.59843636 -0.5984373 0.59843636l-2.3936768 0c-0.33050728 0 -0.5984373 -0.26792908 -0.5984373 -0.59843636z" fill-rule="evenodd"/><path stroke="#8c8c8c" stroke-width="1.0" stroke-linejoin="round" stroke-linecap="butt" d="m12.613337 7.468894l0 0c0 -0.33050776 0.26793003 -0.5984373 0.5984373 -0.5984373l2.3936768 0l0 0c0.1587162 0 0.31093025 0.06304932 0.4231596 0.17527819c0.11222839 0.11222887 0.17527771 0.2644434 0.17527771 0.42315912l0 8.661393c0 0.33050728 -0.26792908 0.59843636 -0.5984373 0.59843636l-2.3936768 0c-0.33050728 0 -0.5984373 -0.26792908 -0.5984373 -0.59843636z" fill-rule="evenodd"/><path fill="#ffffff" d="m18.401691 4.445272l0 0c0 -0.33050776 0.26792908 -0.5984373 0.59843826 -0.5984373l2.3936768 0l0 0c0.1587143 0 0.31093025 0.06304932 0.42315865 0.17527819c0.11222839 0.11222887 0.17527771 0.2644434 0.17527771 0.42315912l0 11.685015c0 0.33050728 -0.26792908 0.59843636 -0.59843636 0.59843636l-2.3936768 0c-0.3305092 0 -0.59843826 -0.26792908 -0.59843826 -0.59843636z" fill-rule="evenodd"/><path stroke="#8c8c8c" stroke-width="1.0" stroke-linejoin="round" stroke-linecap="butt" d="m18.401691 4.445272l0 0c0 -0.33050776 0.26792908 -0.5984373 0.59843826 -0.5984373l2.3936768 0l0 0c0.1587143 0 0.31093025 0.06304932 0.42315865 0.17527819c0.11222839 0.11222887 0.17527771 0.2644434 0.17527771 0.42315912l0 11.685015c0 0.33050728 -0.26792908 0.59843636 -0.59843636 0.59843636l-2.3936768 0c-0.3305092 0 -0.59843826 -0.26792908 -0.59843826 -0.59843636z" fill-rule="evenodd"/><path fill="#ffffff" d="m5.9256277 21.299486l0 0c0 -1.4698601 1.2056584 -2.661417 2.692913 -2.661417l0 0c0.7142048 0 1.3991585 0.28039742 1.9041777 0.7795105c0.5050192 0.49911308 0.78873634 1.176054 0.78873634 1.8819065l0 0c0 1.4698601 -1.2056589 2.661417 -2.692914 2.661417l0 0c-1.4872546 0 -2.692913 -1.1915569 -2.692913 -2.661417z" fill-rule="evenodd"/><path stroke="#8c8c8c" stroke-width="1.0" stroke-linejoin="round" stroke-linecap="butt" d="m5.9256277 21.299486l0 0c0 -1.4698601 1.2056584 -2.661417 2.692913 -2.661417l0 0c0.7142048 0 1.3991585 0.28039742 1.9041777 0.7795105c0.5050192 0.49911308 0.78873634 1.176054 0.78873634 1.8819065l0 0c0 1.4698601 -1.2056589 2.661417 -2.692914 2.661417l0 0c-1.4872546 0 -2.692913 -1.1915569 -2.692913 -2.661417z" fill-rule="evenodd"/></g></svg>